<svg viewBox="0 0 329.9999694824219 199.99998474121094" xmlns="http://www.w3.org/2000/svg"><g><g><g><g><g><line x1="61.953125" y1="177" x2="56.953125" y2="177" style="visibility: inherit;" fill="rgb(0, 0, 0)" stroke="rgb(204, 204, 204)" stroke-width="1px"></line><line x1="61.953125" y1="163.3846153846154" x2="56.953125" y2="163.3846153846154" style="visibility: inherit;" fill="rgb(0, 0, 0)" stroke="rgb(204, 204, 204)" stroke-width="1px"></line><line x1="61.953125" y1="149.76923076923077" x2="56.953125" y2="149.76923076923077" style="visibility: inherit;" fill="rgb(0, 0, 0)" stroke="rgb(204, 204, 204)" stroke-width="1px"></line><line x1="61.953125" y1="136.15384615384613" x2="56.953125" y2="136.15384615384613" style="visibility: inherit;" fill="rgb(0, 0, 0)" stroke="rgb(204, 204, 204)" stroke-width="1px"></line><line x1="61.953125" y1="122.53846153846153" x2="56.953125" y2="122.53846153846153" style="visibility: inherit;" fill="rgb(0, 0, 0)" stroke="rgb(204, 204, 204)" stroke-width="1px"></line><line x1="61.953125" y1="108.92307692307693" x2="56.953125" y2="108.92307692307693" style="visibility: inherit;" fill="rgb(0, 0, 0)" stroke="rgb(204, 204, 204)" stroke-width="1px"></line><line x1="61.953125" y1="95.30769230769232" x2="56.953125" y2="95.30769230769232" style="visibility: inherit;" fill="rgb(0, 0, 0)" stroke="rgb(204, 204, 204)" stroke-width="1px"></line><line x1="61.953125" y1="81.6923076923077" x2="56.953125" y2="81.6923076923077" style="visibility: inherit;" fill="rgb(0, 0, 0)" stroke="rgb(204, 204, 204)" stroke-width="1px"></line><line x1="61.953125" y1="68.0769230769231" x2="56.953125" y2="68.0769230769231" style="visibility: inherit;" fill="rgb(0, 0, 0)" stroke="rgb(204, 204, 204)" stroke-width="1px"></line><line x1="61.953125" y1="54.46153846153847" x2="56.953125" y2="54.46153846153847" style="visibility: inherit;" fill="rgb(0, 0, 0)" stroke="rgb(204, 204, 204)" stroke-width="1px"></line><line x1="61.953125" y1="40.84615384615386" x2="56.953125" y2="40.84615384615386" style="visibility: inherit;" fill="rgb(0, 0, 0)" stroke="rgb(204, 204, 204)" stroke-width="1px"></line><line x1="61.953125" y1="27.230769230769234" x2="56.953125" y2="27.230769230769234" style="visibility: inherit;" fill="rgb(0, 0, 0)" stroke="rgb(204, 204, 204)" stroke-width="1px"></line><line x1="61.953125" y1="13.615384615384606" x2="56.953125" y2="13.615384615384606" style="visibility: inherit;" fill="rgb(0, 0, 0)" stroke="rgb(204, 204, 204)" stroke-width="1px"></line><line x1="61.953125" y1="0" x2="56.953125" y2="0" style="visibility: inherit;" fill="rgb(0, 0, 0)" stroke="rgb(204, 204, 204)" stroke-width="1px"></line></g><g transform="translate(51.953125, 0)"><text x="0" y="177" dx="0em" dy="0.3em" style="text-anchor: end; visibility: hidden; font-family: Roboto, sans-serif; font-size: 12px; font-weight: 200;" fill="rgb(33, 33, 33)" stroke="none" stroke-width="1px">-0.05</text><text x="0" y="163.3846153846154" dx="0em" dy="0.3em" style="text-anchor: end; visibility: inherit; font-family: Roboto, sans-serif; font-size: 12px; font-weight: 200;" fill="rgb(33, 33, 33)" stroke="none" stroke-width="1px">0</text><text x="0" y="149.76923076923077" dx="0em" dy="0.3em" style="text-anchor: end; visibility: hidden; font-family: Roboto, sans-serif; font-size: 12px; font-weight: 200;" fill="rgb(33, 33, 33)" stroke="none" stroke-width="1px">0.05</text><text x="0" y="136.15384615384613" dx="0em" dy="0.3em" style="text-anchor: end; visibility: inherit; font-family: Roboto, sans-serif; font-size: 12px; font-weight: 200;" fill="rgb(33, 33, 33)" stroke="none" stroke-width="1px">0.1</text><text x="0" y="122.53846153846153" dx="0em" dy="0.3em" style="text-anchor: end; visibility: hidden; font-family: Roboto, sans-serif; font-size: 12px; font-weight: 200;" fill="rgb(33, 33, 33)" stroke="none" stroke-width="1px">0.15</text><text x="0" y="108.92307692307693" dx="0em" dy="0.3em" style="text-anchor: end; visibility: inherit; font-family: Roboto, sans-serif; font-size: 12px; font-weight: 200;" fill="rgb(33, 33, 33)" stroke="none" stroke-width="1px">0.2</text><text x="0" y="95.30769230769232" dx="0em" dy="0.3em" style="text-anchor: end; visibility: hidden; font-family: Roboto, sans-serif; font-size: 12px; font-weight: 200;" fill="rgb(33, 33, 33)" stroke="none" stroke-width="1px">0.25</text><text x="0" y="81.6923076923077" dx="0em" dy="0.3em" style="text-anchor: end; visibility: inherit; font-family: Roboto, sans-serif; font-size: 12px; font-weight: 200;" fill="rgb(33, 33, 33)" stroke="none" stroke-width="1px">0.3</text><text x="0" y="68.0769230769231" dx="0em" dy="0.3em" style="text-anchor: end; visibility: hidden; font-family: Roboto, sans-serif; font-size: 12px; font-weight: 200;" fill="rgb(33, 33, 33)" stroke="none" stroke-width="1px">0.35</text><text x="0" y="54.46153846153847" dx="0em" dy="0.3em" style="text-anchor: end; visibility: inherit; font-family: Roboto, sans-serif; font-size: 12px; font-weight: 200;" fill="rgb(33, 33, 33)" stroke="none" stroke-width="1px">0.4</text><text x="0" y="40.84615384615386" dx="0em" dy="0.3em" style="text-anchor: end; visibility: hidden; font-family: Roboto, sans-serif; font-size: 12px; font-weight: 200;" fill="rgb(33, 33, 33)" stroke="none" stroke-width="1px">0.45</text><text x="0" y="27.230769230769234" dx="0em" dy="0.3em" style="text-anchor: end; visibility: inherit; font-family: Roboto, sans-serif; font-size: 12px; font-weight: 200;" fill="rgb(33, 33, 33)" stroke="none" stroke-width="1px">0.5</text><text x="0" y="13.615384615384606" dx="0em" dy="0.3em" style="text-anchor: end; visibility: hidden; font-family: Roboto, sans-serif; font-size: 12px; font-weight: 200;" fill="rgb(33, 33, 33)" stroke="none" stroke-width="1px">0.55</text><text x="0" y="0" dx="0em" dy="0.3em" style="text-anchor: end; visibility: hidden; font-family: Roboto, sans-serif; font-size: 12px; font-weight: 200;" fill="rgb(33, 33, 33)" stroke="none" stroke-width="1px">0.6</text></g><line x1="61.953125" y1="0" x2="61.953125" y2="177" fill="rgb(0, 0, 0)" stroke="rgb(204, 204, 204)" stroke-width="1px"></line></g></g><g transform="translate(61, 0)" clip-path="url(#clip_0)"><clipPath id="clip_0"><rect width="268" height="176"></rect></clipPath><g><g><g><line x1="0" y1="0" x2="0" y2="177" fill="rgb(0, 0, 0)" stroke="rgb(66, 66, 66)" stroke-width="1px" opacity="0.25"></line><line x1="22.337239583333332" y1="0" x2="22.337239583333332" y2="177" fill="rgb(0, 0, 0)" stroke="rgb(66, 66, 66)" stroke-width="1px" opacity="0.25"></line><line x1="44.674479166666664" y1="0" x2="44.674479166666664" y2="177" fill="rgb(0, 0, 0)" stroke="rgb(66, 66, 66)" stroke-width="1px" opacity="0.25"></line><line x1="67.01171875" y1="0" x2="67.01171875" y2="177" fill="rgb(0, 0, 0)" stroke="rgb(66, 66, 66)" stroke-width="1px" opacity="0.25"></line><line x1="89.34895833333333" y1="0" x2="89.34895833333333" y2="177" fill="rgb(0, 0, 0)" stroke="rgb(66, 66, 66)" stroke-width="1px" opacity="0.25"></line><line x1="111.68619791666667" y1="0" x2="111.68619791666667" y2="177" fill="rgb(0, 0, 0)" stroke="rgb(66, 66, 66)" stroke-width="1px" opacity="0.25"></line><line x1="134.0234375" y1="0" x2="134.0234375" y2="177" fill="rgb(0, 0, 0)" stroke="rgb(66, 66, 66)" stroke-width="1px" opacity="0.25"></line><line x1="156.36067708333334" y1="0" x2="156.36067708333334" y2="177" fill="rgb(0, 0, 0)" stroke="rgb(66, 66, 66)" stroke-width="1px" opacity="0.25"></line><line x1="178.69791666666666" y1="0" x2="178.69791666666666" y2="177" fill="rgb(0, 0, 0)" stroke="rgb(66, 66, 66)" stroke-width="1px" opacity="0.25"></line><line x1="201.03515625" y1="0" x2="201.03515625" y2="177" fill="rgb(0, 0, 0)" stroke="rgb(66, 66, 66)" stroke-width="1px" opacity="0.25"></line><line x1="223.37239583333334" y1="0" x2="223.37239583333334" y2="177" fill="rgb(0, 0, 0)" stroke="rgb(66, 66, 66)" stroke-width="1px" opacity="0.25"></line><line x1="245.70963541666666" y1="0" x2="245.70963541666666" y2="177" fill="rgb(0, 0, 0)" stroke="rgb(66, 66, 66)" stroke-width="1px" opacity="0.25"></line><line x1="268.046875" y1="0" x2="268.046875" y2="177" fill="rgb(0, 0, 0)" stroke="rgb(66, 66, 66)" stroke-width="1px" opacity="0.25"></line></g><g><line x1="0" y1="177" x2="268.046875" y2="177" fill="rgb(0, 0, 0)" stroke="rgb(66, 66, 66)" stroke-width="1px" opacity="0.25"></line><line x1="0" y1="163.3846153846154" x2="268.046875" y2="163.3846153846154" fill="rgb(0, 0, 0)" stroke="rgb(66, 66, 66)" stroke-width="1px" opacity="0.25"></line><line x1="0" y1="149.76923076923077" x2="268.046875" y2="149.76923076923077" fill="rgb(0, 0, 0)" stroke="rgb(66, 66, 66)" stroke-width="1px" opacity="0.25"></line><line x1="0" y1="136.15384615384613" x2="268.046875" y2="136.15384615384613" fill="rgb(0, 0, 0)" stroke="rgb(66, 66, 66)" stroke-width="1px" opacity="0.25"></line><line x1="0" y1="122.53846153846153" x2="268.046875" y2="122.53846153846153" fill="rgb(0, 0, 0)" stroke="rgb(66, 66, 66)" stroke-width="1px" opacity="0.25"></line><line x1="0" y1="108.92307692307693" x2="268.046875" y2="108.92307692307693" fill="rgb(0, 0, 0)" stroke="rgb(66, 66, 66)" stroke-width="1px" opacity="0.25"></line><line x1="0" y1="95.30769230769232" x2="268.046875" y2="95.30769230769232" fill="rgb(0, 0, 0)" stroke="rgb(66, 66, 66)" stroke-width="1px" opacity="0.25"></line><line x1="0" y1="81.6923076923077" x2="268.046875" y2="81.6923076923077" fill="rgb(0, 0, 0)" stroke="rgb(66, 66, 66)" stroke-width="1px" opacity="0.25"></line><line x1="0" y1="68.0769230769231" x2="268.046875" y2="68.0769230769231" fill="rgb(0, 0, 0)" stroke="rgb(66, 66, 66)" stroke-width="1px" opacity="0.25"></line><line x1="0" y1="54.46153846153847" x2="268.046875" y2="54.46153846153847" fill="rgb(0, 0, 0)" stroke="rgb(66, 66, 66)" stroke-width="1px" opacity="0.25"></line><line x1="0" y1="40.84615384615386" x2="268.046875" y2="40.84615384615386" fill="rgb(0, 0, 0)" stroke="rgb(66, 66, 66)" stroke-width="1px" opacity="0.25"></line><line x1="0" y1="27.230769230769234" x2="268.046875" y2="27.230769230769234" fill="rgb(0, 0, 0)" stroke="rgb(66, 66, 66)" stroke-width="1px" opacity="0.25"></line><line x1="0" y1="13.615384615384606" x2="268.046875" y2="13.615384615384606" fill="rgb(0, 0, 0)" stroke="rgb(66, 66, 66)" stroke-width="1px" opacity="0.25"></line><line x1="0" y1="0" x2="268.046875" y2="0" fill="rgb(0, 0, 0)" stroke="rgb(66, 66, 66)" stroke-width="1px" opacity="0.25"></line></g></g></g><g><g><line x1="0" y1="163.3846153846154" x2="268.046875" y2="163.3846153846154" fill="rgb(0, 0, 0)" stroke="rgb(153, 153, 153)" stroke-width="1.5px"></line></g></g><g><g><line x1="22.337239583333332" y1="0" x2="22.337239583333332" y2="177" fill="rgb(0, 0, 0)" stroke="rgb(153, 153, 153)" stroke-width="1.5px"></line></g></g><g><g><g><g><g><path stroke="rgb(255, 112, 67)" stroke-width="2px" d="M32.8357421875,-2.0182002148559066L33.05911458333333,2.7865553196073876L33.28248697916666,10.102579875840286L33.505859375,12.379086854574973L33.72923177083333,11.424927560745092L33.95260416666667,9.164123305297574L34.1759765625,14.898534607567578L34.399348958333334,18.665952904967835L34.62272135416667,25.642770174456178L34.84609375,28.238585908741292L35.06946614583333,31.59330570303356L35.29283854166666,33.49721265886428L35.5162109375,35.33666658663114L35.739583333333336,35.27486014523123L35.962955729166666,38.24405540047016L36.186328125,37.44409575518868L36.40970052083333,38.27119629380328L36.63307291666666,40.052747958606965L36.8564453125,47.10155485218247L37.07981770833334,44.70831742281694L37.30319010416667,41.398898790036114L37.526562500000004,41.12333802749596L37.749934895833334,44.770312118900975L37.973307291666664,48.27646376852123L38.196679687499994,46.30643089190403L38.42005208333334,47.085027277689086L38.64342447916667,46.288678751673686L38.866796875,46.02871623138844L39.090169270833336,45.03402819106368L39.313541666666666,42.57463330686185L39.536914062499996,45.793580929399106L39.76028645833333,44.95830196231549L39.98365885416667,49.56562734162315L40.20703125,51.13186791800609L40.43040364583334,56.12355114607671L40.65377604166667,56.079606109698275L40.8771484375,53.64604216263457L41.10052083333333,57.28350243879969L41.32389322916667,60.914655704166776L41.547265625,51.841593251102786L41.77063802083333,56.82169377854958L41.99401041666667,59.00372266616704L42.2173828125,55.149986401888796L42.44075520833333,54.0903601318144L42.66412760416667,59.6087401376507L42.8875,58.14893776665485L43.11087239583333,61.6517634962039L43.33424479166666,59.015304412578075L43.5576171875,60.12382743540858L43.78098958333333,60.320572205316545L44.00436197916667,57.41055820919504L44.227734375000004,61.0562441188494L44.451106770833334,64.15860876807432L44.674479166666664,66.32501084336647L44.8978515625,68.74676091830415L45.12122395833333,65.59236310064163L45.34459635416666,65.52963386306935L45.567968750000006,64.0759950740003L45.791341145833336,67.00522823433337L46.014713541666666,65.60399736757617L46.238085937499996,64.8503987841157L46.46145833333333,70.25829973899641L46.68483072916666,79.8968244131176L46.908203125,80.16843236668745L47.13157552083334,85.50524485083264L47.35494791666667,83.9691778199645L47.5783203125,83.35252088720084L47.801692708333334,83.450895771333L48.025065104166664,84.18524547193277L48.2484375,80.69373219978799L48.47180989583334,87.32356268765186L48.69518229166667,85.37604592296779L48.9185546875,86.4186744243791L49.14192708333333,83.66763416694484L49.365299479166666,78.62950503136996L49.588671875,81.29241102795496L49.81204427083333,88.48879979032233L50.03541666666667,86.4564172917666L50.2587890625,87.75311288477278L50.48216145833333,91.71168274152134L50.70553385416667,95.27408681469794L50.92890625,90.12457541504699L51.37565104166667,87.13289938084418L51.5990234375,89.91266252364458L51.82239583333333,89.24956605936684L52.269140625,86.04149391805795L52.492513020833336,79.16064951659334L52.715885416666666,83.10334478705397L52.9392578125,85.68680529849371L53.16263020833333,87.99934631207188L53.38600260416666,88.76600698738915L53.609375,91.75301935371303L53.83274739583334,96.90005752455961L54.05611979166667,93.71431049253069L54.279492187500004,92.28212543225831L54.502864583333334,90.45339720921108L54.726236979166664,88.81154541015307L54.949609374999994,92.10711230035737L55.17298177083334,92.06937386235343L55.39635416666667,93.82217779220514L55.6197265625,90.53872134318618L55.843098958333336,91.54224749455027L56.066471354166666,90.90264181203075L56.289843749999996,90.49709341837057L56.73658854166667,90.5914267672347L56.9599609375,90.78962430427721L57.18333333333334,87.04177468644347L57.40670572916667,90.08672517132206L57.630078125,90.53037331502658L57.85345052083333,89.62019253419605L58.07682291666667,89.3790705976156L58.3001953125,94.22307278240862L58.52356770833333,97.72855141888529L58.74694010416667,105.67011534466015L58.9703125,107.62483781430248L59.19368489583333,109.98493345521534L59.41705729166667,110.68209772442597L59.6404296875,109.27049007908776L59.86380208333333,109.54543269856688L60.08717447916666,110.39661390936878L60.310546875,108.24959839290591L60.75729166666667,103.98778906225276L60.980664062500004,102.43279650388702L61.204036458333334,108.50355488773542L61.427408854166664,114.33536349411773L61.65078125,112.8784491643482L61.87415364583333,110.0001161095145L62.09752604166666,109.36234600707363L62.320898437500006,108.46774655660214L62.544270833333336,110.63227947447982L62.767643229166666,110.78730541129559L62.991015624999996,112.77558375577534L63.21438802083333,109.28485870147911L63.43776041666666,106.66759216473982L63.6611328125,108.98578536690394L63.88450520833334,108.42697929160163L64.10787760416666,111.10886401241225L64.33125,108.08876524428574L64.55462239583333,108.06304384505776L64.77799479166667,109.2566565257166L65.0013671875,107.08636242684999L65.22473958333333,111.48086356061452L65.671484375,113.03922537940775L65.89485677083333,107.25368847650493L66.56497395833333,106.10242819264698L66.78834635416666,105.74933440739247L67.01171875,108.75070811340731L67.23509114583334,105.84605529188367L67.45846354166666,105.21427993665763L67.6818359375,110.97847637624841L67.90520833333333,110.33059289739083L68.351953125,111.8153406083181L68.57532552083335,109.49295763462658L68.79869791666667,108.26291360844483L69.0220703125,108.22199370084407L69.24544270833334,111.18193426913328L69.6921875,109.51592954554097L69.91555989583333,109.05005070762138L70.13893229166666,112.59372319971227L70.3623046875,118.85900389072121L70.58567708333332,122.36764823377989L70.80904947916666,126.18292769136393L71.032421875,127.89480302446196L71.25579427083333,129.59725137136095L71.47916666666667,130.05231971858203L71.70253906250001,129.90056083988105L71.92591145833333,127.79442937515444L72.14928385416667,128.02299594120313L72.37265625,128.9443823255345L72.81940104166667,125.96810677805396L73.0427734375,126.24098674382847L73.26614583333333,123.8232379248688L73.48951822916666,126.71861993249719L73.712890625,124.79603347718444L73.93626302083332,126.20217341827265L74.15963541666667,126.51213500977015L74.38300781250001,124.9989124165342L74.60638020833333,125.38716269430176L74.82975260416667,122.88614441965935L75.05312500000001,122.65993230443455L75.49986979166667,124.31054452002797L75.72324218749999,123.00263497564876L75.94661458333333,119.549272514003L76.16998697916667,122.5421794513568L76.39335937499999,120.83059959675789L76.61673177083333,119.77097583085619L76.84010416666668,121.21563184972642L77.0634765625,124.72925640037816L77.28684895833334,126.84832281130329L77.51022135416667,126.58394724467676L77.73359375,127.87399900436887L77.95696614583333,126.6111681269895L78.18033854166667,127.44374747411463L78.4037109375,124.67560264485097L78.62708333333333,126.2388382165346L78.85045572916667,122.93967155820256L79.07382812499999,122.75740354000588L79.29720052083333,121.75487298672373L79.52057291666667,123.33181573875348L79.7439453125,127.0228431348887L79.96731770833334,125.93709047034855L80.19069010416668,121.03763837820802L80.4140625,121.35476706838824L80.63743489583334,124.17009104921765L80.86080729166667,121.90537736106218L81.0841796875,121.00402569988502L81.30755208333333,122.06438506880573L81.53092447916666,123.52841548007693L81.754296875,121.61840282516552L82.20104166666665,125.71159546204683L82.4244140625,131.27181853522134L82.64778645833334,133.75835260505886L83.09453125,135.7404270749002L83.31790364583334,137.25644083825082L83.54127604166666,138.38389488004506L83.7646484375,138.06916756870984L83.98802083333334,137.31393133253056L84.21139322916666,136.66472797964747L84.434765625,139.09631353427426L84.65813802083333,137.6252340030317L84.88151041666666,136.49206383581978L85.1048828125,132.67517676822416L85.32825520833335,133.84879857638109L85.55162760416667,134.30244840126872L85.775,136.30651532055842L85.99837239583334,134.94926284631617L86.22174479166667,134.810234508811L86.4451171875,136.26263291948948L86.66848958333333,136.57856460859264L87.115234375,136.78990779466287L87.56197916666666,136.023544775481L87.7853515625,133.59221917168244L88.00872395833333,133.93065497466569L88.23209635416667,133.92676235320585L88.45546875000001,133.3580269309518L88.67884114583333,134.51992361455828L88.90221354166667,134.4328159915602L89.1255859375,132.9863359669243L89.34895833333333,132.27094040656146L89.57233072916667,132.9200411202691L89.795703125,134.2680246202229L90.01907552083333,135.17484552578293L90.24244791666666,132.6255222586073L90.4658203125,132.0544521815713L91.13593750000001,133.6397479593422L91.35930989583333,134.3621871501467L91.58268229166667,135.49275879581796L91.80605468750001,135.68094775528192L92.02942708333333,133.58272257073853L92.47617187499999,134.56760268491678L92.69954427083333,132.64240809590464L92.92291666666667,131.1714147531257L93.14628906249999,132.55441814497095L93.36966145833333,134.5823740197396L93.59303385416668,136.14770161019513L93.81640625,136.34622087652303L94.03977864583334,135.73554764044866L94.26315104166667,139.58446671599773L94.4865234375,142.76520291954287L94.70989583333333,144.57561424185224L94.93326822916667,142.92789137662467L95.156640625,142.82153490777804L95.38001302083333,143.476613330267L95.60338541666667,144.81729096341536L95.82675781249999,143.6392972589407L96.05013020833333,143.93459407628205L96.27350260416667,143.92660223604537L96.496875,144.3792844951597L96.72024739583334,145.3371090839726L96.94361979166668,145.08398864157147L97.1669921875,143.95180832025315L97.39036458333334,142.93483855394206L97.61373697916667,145.3962879262887L97.837109375,144.95611100046816L98.06048177083333,141.96892808420694L98.28385416666666,141.79957206114534L98.5072265625,139.8026972879984L98.73059895833333,136.54592631830727L98.95397135416665,137.61992540609901L99.17734375,140.34475513718533L99.40071614583334,138.52679141919708L99.62408854166667,139.91945918124074L99.8474609375,142.00767532695943L100.07083333333334,142.443681905006L100.29420572916666,143.99057800500898L100.517578125,141.79262400135673L100.74095052083334,142.53249770496836L100.96432291666666,143.64085258210125L101.1876953125,143.6958965022461L101.41106770833333,140.28695297822702L101.63444010416666,141.2042952040569L101.8578125,141.15562321395402L102.08118489583335,140.0154044937443L102.30455729166667,141.7602584171642L102.5279296875,141.27135535803455L102.75130208333334,141.46816673895543L102.97467447916667,141.0743153669608L103.198046875,142.0143742108173L103.42141927083333,141.35847069332115L103.64479166666666,142.03237495221472L103.8681640625,139.61560994119418L104.09153645833332,136.46635057490727L104.31490885416666,135.75316381064818L104.53828125,137.4165753341184L104.76165364583333,136.49757610474208L105.20839843750001,136.20759150765693L105.43177083333333,135.43452423534512L105.65514322916667,138.6849603691387L105.878515625,139.03405330686817L106.10188802083333,141.45464762972762L106.32526041666667,144.11605014940895L106.5486328125,147.36852245836548L106.77200520833333,149.78837488752978L106.99537760416666,147.48244069109097L107.21875,148.94177191219265L107.44212239583332,150.77589371658286L107.66549479166667,149.05525923286035L107.88886718750001,147.81592443937706L108.11223958333333,148.29226238709705L108.33561197916667,147.53240377048633L108.55898437500001,147.75181134178993L108.78235677083333,149.66979455776024L109.00572916666667,149.97098430750512L109.22910156249999,150.15169815735206L109.45247395833333,148.11434204794372L109.67584635416667,148.2752513410615L109.89921874999999,147.467735494034L110.12259114583333,149.52113362748506L110.34596354166668,148.44400314174618L110.79270833333334,145.5103404686418L111.01608072916667,147.32281980538536L111.239453125,148.1379995690466L111.46282552083333,149.2261843470741L111.68619791666667,148.06007947024983L111.9095703125,148.3516170921072L112.13294270833333,148.64635504918778L112.35631510416667,146.29618226807267L112.57968749999999,146.8140172349363L112.80305989583333,145.28391789303532L113.02643229166667,146.05416615549512L113.2498046875,147.9540997205648L113.47317708333334,146.94827544029013L113.69654947916668,146.37745753680784L114.14329427083334,142.21176699987583L114.36666666666667,143.905891116532L114.5900390625,145.89178074455901L114.81341145833333,145.8306990328827L115.03678385416666,145.3583576267691L115.26015625,145.47796849752623L115.48352864583333,148.66493500310048L115.9302734375,148.6164996062298L116.15364583333334,147.62891529637818L116.37701822916667,145.97981083315022L116.600390625,146.43902484911146L116.82376302083334,145.1896299318107L117.04713541666666,144.05876225115344L117.2705078125,143.4129191189818L117.49388020833334,144.7790744366442L117.71725260416666,145.34824436723514L117.940625,148.99011583358106L118.16399739583333,148.87696183965332L118.38736979166666,151.05288466820096L118.6107421875,151.83560767270816L119.05748697916667,152.38148770262188L119.50423177083334,152.0445850656042L119.72760416666667,152.1909971432178L119.9509765625,151.50549043715804L120.17434895833333,151.35560175983287L120.39772135416666,152.25686869561963L120.62109375,152.4708597756458L120.84446614583332,151.4773468112094L121.06783854166666,151.30603891958114L121.2912109375,151.85679275326598L121.73795572916667,150.56429092101166L121.96132812500001,150.63839000149636L122.18470052083333,150.46500326023326L122.40807291666667,152.5721095728121L122.6314453125,152.21341943077923L122.85481770833333,151.22485179870168L123.07819010416667,149.9781726507934L123.3015625,147.67256517048844L123.52493489583333,148.03196979296675L123.74830729166666,149.5655817900814L123.9716796875,150.23522613411373L124.19505208333332,151.33412046595168L124.41842447916667,151.69936464829112L124.64179687500001,152.06011112003935L124.86516927083333,152.28745108939242L125.08854166666667,150.85536299314015L125.31191406250001,150.09414094097653L125.53528645833333,148.94029998425984L125.75865885416667,148.29156456698658L125.98203124999999,149.13315422673676L126.20540364583333,151.22838467882943L126.42877604166667,151.3418307592545L126.65214843749999,151.51882170517152L126.87552083333333,151.9082161974108L127.09889322916668,150.74763744191733L127.322265625,150.71572084358715L127.54563802083334,150.44604803035256L127.76901041666667,150.67636715899283L127.9923828125,151.25025101528482L128.21575520833332,150.9519352524725L128.43912760416669,148.6816226185295L128.6625,149.77020436631776L129.10924479166667,149.76981484632896L129.3326171875,146.10976588021592L129.55598958333334,144.97029037786513L129.77936197916668,147.15128179956807L130.002734375,149.8105229466701L130.22610677083333,153.12705216721423L130.44947916666666,152.9167236313932L130.6728515625,152.4746495147589L130.89622395833334,151.37069735701525L131.11959635416667,151.8629107452738L131.34296875,153.67226961303217L131.56634114583335,154.62717705764678L131.78971354166666,155.9299063202867L132.0130859375,153.60723598105486L132.23645833333333,153.6623108771838L132.45983072916667,154.28354044550275L132.683203125,152.84815513781263L133.12994791666665,153.41381606871815L133.3533203125,154.63548967466636L133.57669270833333,154.91101688074903L133.80006510416666,155.2179331667432L134.0234375,154.85746746445488L134.24680989583334,155.1531266493991L134.69355468749998,154.92750685171043L134.91692708333332,154.48715006425968L135.14029947916666,154.31007471107287L135.363671875,151.81841390614187L135.58704427083333,151.22747925185155L135.81041666666667,153.37814903049235L136.03378906249998,152.86042805188038L136.25716145833331,151.67841070649752L136.48053385416665,152.85356937227363L136.70390625,151.76143381224702L136.92727864583335,153.4479987096081L137.3740234375,154.2203068800925L137.59739583333334,152.7121841929787L137.82076822916667,152.9401106852368L138.044140625,151.9985281248963L138.26751302083335,151.94551678923912L138.49088541666669,152.07709452856776L138.7142578125,153.41954894984664L139.16100260416667,152.01388324527727L139.384375,151.93294528308934L139.60774739583334,153.6271518193229L139.83111979166665,152.83555269238158L140.724609375,152.82896226000713L140.94798177083334,155.0579311391826L141.17135416666665,153.95543563060806L141.39472656249998,155.04759992819888L141.61809895833332,155.70289850675337L141.84147135416666,153.00266224914446L142.06484375,154.83538205121917L142.28821614583333,156.01125995678834L142.51158854166667,155.60577137686687L142.7349609375,156.12493968946768L142.95833333333334,156.66517915577128L143.18170572916668,156.60809210527663L143.40507812500002,155.92030150920309L143.62845052083335,156.55328853680172L143.85182291666666,155.48440405946292L144.0751953125,154.58165762097886L144.29856770833334,154.67176374817183L144.52194010416667,156.00022749135852L144.7453125,156.72105951006114L144.96868489583335,157.1535587212827L145.19205729166666,157.8269660487451L145.4154296875,157.0655334731286L145.63880208333333,157.8830739946296L145.86217447916667,157.0991982406593L146.085546875,156.955642072608L146.53229166666665,156.98932375574336L146.7556640625,156.1163634290305L146.97903645833333,155.57080265462443L147.20240885416666,155.199897033224L147.42578125,155.57643058021452L147.6491536458333,155.9875198275101L147.87252604166665,155.86383493479983L148.0958984375,154.85288570870787L148.31927083333335,155.55339290460614L148.54264322916669,155.87566641655732L148.76601562500002,154.64213840820844L148.98938802083333,155.76460609782654L149.21276041666667,156.16577907609752L149.4361328125,156.2539906115264L149.65950520833334,156.19799443800676L149.88287760416668,156.1535044447058L150.10625000000002,156.1268104487252L150.32962239583333,156.27417859185977L150.55299479166666,155.7961994254773L150.7763671875,155.84707349916792L150.99973958333334,155.2567362422881L151.22311197916667,154.97878011536957L151.44648437499998,153.85348336748928L151.66985677083332,154.844828405098L151.89322916666666,154.57914336440686L152.1166015625,155.2257629573026L152.33997395833333,153.91453475913553L152.56334635416667,152.833705423472L152.78671874999998,155.20237699960606L153.01009114583331,155.1531184701251L153.23346354166665,155.7008556938889L153.4568359375,155.57202107066095L153.68020833333335,155.54918194555518L153.9035807291667,155.5463707596809L154.126953125,156.63391479304093L154.57369791666667,156.8289642555707L154.7970703125,155.58445534981908L155.02044270833335,156.34088855198212L155.24381510416669,156.9363484356245L155.4671875,156.41134752129008L155.69055989583333,156.04188552674347L155.91393229166667,157.5411928622984L156.1373046875,157.6020695758683L156.36067708333334,158.12874942906404L156.58404947916665,157.23571121213078L156.807421875,157.15736523945702L157.03079427083333,158.71152680416952L157.25416666666666,158.0428545946803L157.4775390625,157.72878958250027L157.70091145833334,158.5206583267424L157.92428385416665,156.77374882531925L158.37102864583332,157.9258492940554L158.59440104166666,159.11815568954006L158.8177734375,159.37606267078718L159.04114583333333,160.26059145252154L159.26451822916667,158.32964710421894L159.487890625,158.78314213562834L159.71126302083334,158.7175775809539L159.93463541666668,158.63466969139247L160.15800781250002,158.98794026631086L160.38138020833335,157.93639483358015L160.60475260416666,157.4470677391713L160.828125,155.87907121277007L161.05149739583334,156.61568887534048L161.27486979166667,156.6110748045857L161.4982421875,156.65187572177464L161.72161458333335,156.55654088812184L161.94498697916666,156.95681674253137L162.168359375,157.15341309842032L162.39173177083333,157.06441701158894L162.61510416666667,157.61009627932089L163.06184895833331,157.24039631742656L163.28522135416665,157.05125320785754L163.50859375,157.34078265077136L163.73196614583333,156.22920796045955L164.1787109375,156.41186332610977L164.4020833333333,155.8897025552165L164.62545572916665,155.34766781682248L164.848828125,155.55616995559666L165.07220052083335,154.58114800190233L165.29557291666669,155.77158101079965L165.51894531250002,156.77993323290136L165.74231770833333,156.4917752295683L165.96569010416667,157.7784497149832L166.1890625,159.23666984246148L166.41243489583334,159.04415565099976L166.63580729166668,159.74557034694993L166.85917968750002,160.29712683767536L167.08255208333333,158.28621460017607L167.30592447916666,159.46508264781033L167.529296875,159.8674187704384L167.75266927083334,158.7690666420092L167.97604166666667,157.79417836980997L168.19941406249998,158.64703011552677L168.42278645833332,158.7992949096159L169.09290364583333,159.620438480498L169.31627604166667,159.27441683382168L169.53964843749998,159.5569577723122L169.76302083333331,159.0184824222413L169.98639322916665,157.41010485613864L170.209765625,158.74335519021236L170.43313802083335,159.65222848543354L170.6565104166667,160.30647555734322L170.8798828125,160.20886997543522L171.10325520833334,160.35726042521262L171.32662760416667,159.74918707110305L171.55,159.48237386422508L171.77337239583335,159.082655172166L171.99674479166669,159.11513159243043L172.44348958333333,159.0692635065689L172.66686197916667,159.07441972550458L172.890234375,158.33683637180565L173.11360677083334,157.31699422101897L173.33697916666665,158.0012733729112L173.5603515625,157.46421008150654L173.78372395833333,156.7280645088193L174.00709635416666,156.64582331710542L174.23046875,157.91444782570477L174.45384114583334,157.71709945913514L174.67721354166665,157.18478284134898L174.90058593749998,157.6496389096093L175.12395833333332,157.18787566839023L175.34733072916666,157.66238689502327L175.570703125,158.4917091048879L175.79407552083333,158.172379321422L176.01744791666667,155.99838157274885L176.2408203125,157.03582895403702L176.46419270833334,157.5275897096546L176.68756510416668,157.51766145707262L176.91093750000002,157.1304737752466L177.13430989583335,157.9329304650896L177.5810546875,158.392619900617L177.80442708333334,158.54861817796728L178.02779947916667,159.47003244150883L178.69791666666666,159.03168095889444L178.9212890625,158.08245463309646L179.14466145833333,159.2883651201741L179.36803385416667,159.9792344434106L179.59140625,160.339294489964L179.81477864583331,160.40283826636232L180.03815104166665,160.22311834264738L180.2615234375,159.9627940354422L180.48489583333333,160.35121492500386L180.70826822916666,159.94162128071082L180.931640625,159.49980358440197L181.1550130208333,158.62474375759672L181.37838541666665,158.4264769429594L181.6017578125,159.69084001582488L182.04850260416669,158.51062713770733L182.27187500000002,158.8590531867113L182.49524739583333,159.2314934582791L182.71861979166667,159.48763448878736L182.9419921875,159.4779345663694L183.16536458333334,159.41765306553015L183.38873697916668,159.78449957512433L183.61210937500002,160.30959208539082L183.83548177083333,159.77504751315593L184.05885416666666,159.83555160153435L184.2822265625,159.27277703328812L184.50559895833334,159.90452775470135L184.72897135416667,159.47754746879627L185.17571614583332,160.0927438525839L185.39908854166666,159.3072769999517L185.6224609375,159.89255076568938L185.84583333333333,158.87128435555834L186.06920572916667,159.9250475450954L186.29257812499998,160.88407469242728L186.51595052083331,160.35936784531012L186.73932291666665,159.70688216351974L186.9626953125,159.55502162382032L187.18606770833335,159.5183668473892L187.4094401041667,160.2806201219051L187.6328125,160.36763364552698L187.85618489583334,160.35448792312243L188.07955729166667,160.48820045202422L188.3029296875,160.1000587226899L188.52630208333335,159.21363531931257L188.74967447916669,159.28085809567443L188.973046875,159.57171481861303L189.19641927083333,159.89872120535244L189.41979166666667,159.310678795579L189.86653645833334,159.48068424522134L190.08990885416665,160.42139515204855L190.31328125,160.00551399531602L190.53665364583333,160.6709391655277L190.76002604166666,161.1028711859435L190.9833984375,161.02436882467296L191.20677083333334,159.84446740482676L191.43014322916665,160.06237275708068L191.65351562499998,159.92080823149064L191.87688802083332,160.91420802255325L192.10026041666666,161.1181248270035L192.3236328125,160.75032108461986L192.54700520833333,161.19406959559814L192.77037760416667,161.2097956450636L192.99375,160.50033897094593L193.21712239583334,160.64106491729603L193.44049479166668,161.43350049971377L193.66386718750002,160.88508494085755L193.88723958333335,161.2095740220418L194.11061197916666,161.1864213319197L194.333984375,161.40126819658954L194.55735677083334,160.24488406077384L194.78072916666667,159.19160742738597L195.0041015625,160.32419523783548L195.22747395833335,160.86214791103936L195.45084635416666,161.19581180415088L195.67421875,161.06924090640817L195.89759114583333,160.9170522419957L196.3443359375,160.68413908100365L196.56770833333331,160.72956040495225L196.79108072916665,160.33201321084528L197.014453125,160.25686943510405L197.23782552083333,160.07018320731473L197.46119791666666,159.9363868922628L197.6845703125,160.34626292828543L197.9079427083333,160.48326545512202L198.13131510416665,158.5394977329886L198.3546875,159.7150832316431L198.57805989583335,160.03920380055897L198.80143229166669,160.83275306173925L199.02480468750002,160.93854417735977L199.24817708333333,160.91488033033352L199.47154947916667,161.04228208590482L199.694921875,160.4978615395959L199.91829427083334,161.18419383092828L200.14166666666668,161.20387018626167L200.36503906250002,160.4205374684554L200.58841145833333,160.75656865796714L200.81178385416666,160.62052579815412L201.03515625,161.07262316551936L201.25852864583334,161.08246623962785L201.48190104166667,160.90320286354913L201.70527343749998,161.6561371040433L201.92864583333332,161.70488223824208L202.15201822916666,160.6775755428869L202.375390625,160.9325760810044L202.59876302083333,161.35788409009606L202.82213541666667,161.88537660713283L203.04550781249998,161.67904134865162L203.26888020833331,161.6532709484294L203.715625,161.59423950081805L203.93899739583335,161.79845140018352L204.1623697916667,161.46350163303785L204.3857421875,161.32788560932815L204.60911458333334,160.28799282193054L204.83248697916667,160.64436490104214L205.055859375,160.9344343249972L205.27923177083335,161.05401448270302L205.50260416666669,161.3871779236372L205.7259765625,161.8158144415802L205.94934895833333,161.7571194332862L206.17272135416667,161.79814860479792L206.39609375,161.79008913869484L206.61946614583334,161.66543807506687L206.84283854166665,161.2638782540017L207.0662109375,161.18632690208554L207.28958333333333,160.93284229201362L207.51295572916666,161.1184130487693L207.736328125,161.0554786221893L207.95970052083334,161.6494717790003L208.18307291666665,161.50482153348327L208.40644531249998,161.06947752346377L208.62981770833332,161.527163421249L208.85319010416666,161.06109807774484L209.0765625,161.66373576688343L209.29993489583333,161.66587222846815L209.52330729166667,161.8414310367736L209.7466796875,161.76159710121303L209.97005208333334,161.85529670222124L210.19342447916668,161.06191643515265L210.41679687500002,160.95622681744166L210.64016927083335,161.4156437901577L210.86354166666666,161.86557087978133L211.0869140625,160.45811173266873L211.31028645833334,161.07320548109467L211.53365885416667,161.11549249654058L211.75703125,159.46344943172454L211.98040364583335,160.09517731953005L212.4271484375,160.84455254402226L212.65052083333333,160.858485350331L212.87389322916667,161.29164507331365L213.097265625,160.6801563010513L213.32063802083331,160.19344765372776L213.54401041666665,161.28474551285868L213.7673828125,161.60186266749747L213.99075520833333,162.19514837037846L214.4375,162.47487364097958L214.6608723958333,162.40307801004732L214.88424479166665,162.3817852605876L215.1076171875,162.04224037730216L215.33098958333335,161.7078057234543L215.77773437500002,161.9755142031816L216.00110677083333,162.0598931398905L216.22447916666667,162.35015126984814L216.4478515625,161.89255225898188L216.67122395833334,161.54174672669527L216.89459635416668,161.79963265399869L217.11796875000002,162.19399497831307L217.34134114583333,162.09295085010288L217.56471354166666,162.3808782105254L217.7880859375,162.27043462600793L218.01145833333334,162.36755309210227L218.23483072916667,162.1970857183764L218.45820312499998,161.9858821993639L218.68157552083332,162.2294985544047L218.90494791666666,162.1469299140467L219.1283203125,161.770619445501L219.35169270833333,161.79535627221637L219.57506510416667,162.11518299811618L219.79843749999998,161.84960210153045L220.02180989583331,162.15862281025446L220.24518229166665,161.7340660264689L220.4685546875,162.0893011652175L220.69192708333335,161.79050379431322L220.9152994791667,161.72014841582637L221.138671875,161.0570736905251L221.36204427083334,161.71578268194008L221.58541666666667,162.20903884433588L221.8087890625,161.97126944583997L222.03216145833335,162.04645399629632L222.25553385416669,161.37267242277323L222.47890625,161.6328342350678L222.70227864583333,161.50573129631297L222.92565104166667,161.7889156849585L223.1490234375,162.04596478382317L223.37239583333334,162.2764404196301L223.59576822916665,162.14241811489308L223.819140625,162.3234201037222L224.04251302083333,161.84383669173874L224.26588541666666,161.82839433076978L224.4892578125,162.04786736757092L224.71263020833334,162.1141973277133L224.93600260416665,162.2847030023147L225.15937499999998,162.08202177720491L225.38274739583332,160.70779765508905L225.60611979166666,161.342832418513L225.8294921875,161.8872379187328L226.05286458333333,162.35548120656986L226.27623697916667,162.35322717850113L226.499609375,162.50436706391488L226.94635416666668,162.73665100822893L227.16972656250002,162.65817521062405L227.39309895833335,162.15361279993556L227.61647135416666,162.4281676696142L228.06321614583334,162.54933135858272L228.28658854166667,162.70916805032147L228.5099609375,162.68525466871824L228.73333333333335,162.87786049573995L228.95670572916666,162.91717783448533L229.180078125,162.66846052615077L229.40345052083333,162.39941475718388L229.62682291666667,162.3578026797699L229.8501953125,162.48532776093714L230.29694010416665,162.5836274133765L230.5203125,162.5772533682624L230.74368489583333,162.46450584641704L230.96705729166666,162.27704194934364L231.1904296875,162.1645636110996L231.4138020833333,162.40206123802378L231.63717447916665,162.58812904701696L231.860546875,162.51460051186902L232.08391927083335,162.44869876168065L232.30729166666669,161.8754346283145L232.75403645833333,162.3375069304494L232.97740885416667,162.3860118456675L233.20078125,162.53493017876454L233.42415364583334,162.11234269910867L233.64752604166668,162.31626716880137L234.09427083333333,162.02471415133007L234.31764322916666,161.9804900140026L234.541015625,161.65986321628537L234.98776041666667,161.35856404287807L235.21113281249998,161.70061533289757L235.43450520833332,162.0038768871364L235.65787760416666,161.47783383043262L235.88125,161.9900233696236L236.10462239583333,161.70915248785724L236.32799479166667,161.76936843754055L236.55136718749998,161.9688825987947L236.77473958333331,161.89252953509293L236.99811197916665,162.24973310696961L237.221484375,162.07193217990832L237.44485677083335,162.18309776250422L237.6682291666667,162.27158174116138L237.8916015625,162.53162596531882L238.11497395833334,162.63319096510517L238.33834635416667,162.41092993884536L238.56171875,162.24489640480064L239.00846354166669,162.47204554334405L239.2318359375,162.65190424662845L239.45520833333333,162.79249639956825L239.67858072916667,162.48472862114482L240.12532552083334,162.4852371746346L240.34869791666665,162.47464999217863L240.5720703125,162.60989769577083L240.79544270833333,162.37516939886638L241.01881510416666,162.36504009387903L241.2421875,162.6421625116576L241.46555989583334,162.50345133245412L241.68893229166665,162.63807078912535L241.91230468749998,162.64259631200056L242.13567708333332,162.4492501159927L242.35904947916666,162.6055500592485L242.582421875,162.66665310691312L242.80579427083333,162.4745764821294L243.02916666666667,162.3157612490599L243.2525390625,162.17690290174016L243.47591145833334,162.28964942844198L243.69928385416668,162.3790819735627L243.92265625000002,162.61791072117896L244.14602864583335,162.84834643542604L244.36940104166666,162.73608478149217L244.5927734375,162.70140470742066L245.03951822916667,162.88755051896138L245.262890625,162.62889955845802L245.70963541666666,162.7242320392775L245.9330078125,162.36752382848226L246.15638020833333,162.63276045055002L246.37975260416667,162.46513317750075L246.603125,162.71311067638047L246.82649739583331,162.85100486115843L247.04986979166665,162.44358752161082L247.49661458333333,162.67839866642717L247.71998697916666,162.19842379170623L247.943359375,162.53130042848443L248.1667317708333,162.73102641055132L248.39010416666665,162.61123121917885L248.6134765625,162.7245233502598L248.83684895833335,162.83606786174707L249.06022135416669,162.2276714723205L249.50696614583333,162.5706336532723L249.73033854166667,162.68927249616607L249.9537109375,162.49904040487039L250.17708333333334,162.7225626982524L250.40045572916668,162.7695376086043L250.62382812500002,162.77593795107643L250.84720052083333,162.47479355204973L251.07057291666666,162.69712228469052L251.2939453125,162.830519524275L251.51731770833334,162.7907424713792L251.74069010416667,162.87579933441867L251.96406249999998,162.78523343917658L252.18743489583332,162.21895544787787L252.41080729166666,162.3148809561246L252.6341796875,162.5902824252659L252.85755208333333,162.31983097836414L253.08092447916667,162.397190903516L253.30429687499998,162.69412992840893L253.52766927083331,162.78515487766737L253.75104166666665,162.75263139422543L253.9744140625,162.86382498999595L254.19778645833335,162.94143344932775L254.4211588541667,162.75926007154433L254.64453125,162.86780219638726L254.86790364583334,162.88935823845438L255.09127604166667,162.96764571295265L255.3146484375,162.55714129088662L255.53802083333335,162.74653092799264L255.76139322916669,162.77302625725926L255.984765625,162.93052344886453L256.43151041666664,162.9705602227794L256.6548828125,162.98368998525882L256.87825520833337,162.8608601442305L257.10162760416665,162.83073147245213L257.325,162.72551580370782L257.5483723958333,162.67327871701104L257.77174479166666,162.69639798702084L257.9951171875,162.7865157128345L258.21848958333334,162.78612481361455L258.4418619791667,162.8948133434989L258.665234375,162.86199570656302L258.88860677083335,162.9839051184468L259.55872395833336,163.00258922452875L259.78209635416664,162.6761381526988L260.00546875,162.75257519582195L260.2288411458333,162.68951435227953L260.45221354166665,162.86952399766705L260.6755859375,162.8468220990639L260.8989583333333,162.833200959902L261.12233072916666,162.95573596224054L261.345703125,163.05104158006299" style="fill: none;" fill="none"></path></g></g></g></g><g opacity="0.2"><g><g><g><path stroke="rgb(255, 112, 67)" stroke-width="2px" d="M30.825390625,-33.98399745501006L31.04876302083333,6.235851893058178L31.272135416666668,-17.26430616011986L31.495507812499998,-0.5718501531160765L31.94225260416667,1.0620074272155762L32.165625,-3.730607931430517L32.612369791666666,-1.307073079622718L32.8357421875,2.477998935259295L33.05911458333333,9.993688620053796L33.28248697916666,21.076616709048924L33.505859375,15.79384732246399L33.72923177083333,9.993688620053796L33.95260416666667,5.772916922202465L34.1759765625,23.500151560856743L34.399348958333334,24.31708035102257L34.62272135416667,36.107996078637925L34.84609375,32.13230951015766L35.06946614583333,36.625385394463166L35.29283854166666,36.353073092607346L35.5162109375,38.095847478279694L35.739583333333336,35.18215048313141L35.962955729166666,42.69784828332755L36.186328125,36.244156287266655L36.40970052083333,39.51184710172505L36.63307291666666,42.72507545581232L36.8564453125,57.67476519254539L37.07981770833334,41.11846127876869L37.30319010416667,36.434770840864914L37.526562500000004,40.70999688368577L37.749934895833334,50.240773256008445L37.973307291666664,53.535691242951614L38.196679687499994,43.351381576978255L38.42005208333334,48.25292185636668L38.64342447916667,45.094155962650596L38.866796875,45.63877245096061L39.090169270833336,43.54199613057651L39.313541666666666,38.88554098055913L39.536914062499996,50.622002363204956L39.76028645833333,43.70538351169001L39.98365885416667,56.47661541058467L40.20703125,53.48122878258045L40.43040364583334,63.61107598818267L40.65377604166667,56.01368855513061L40.8771484375,49.995696242039024L41.10052083333333,62.739692853047295L41.32389322916667,66.36138560221747L41.547265625,38.23199957150678L41.77063802083333,64.29184456971976L41.99401041666667,62.27676599759322L42.2173828125,49.36938200547145L42.44075520833333,52.500920726702766L42.66412760416667,67.88631014640515L42.8875,55.95923421016108L43.11087239583333,66.90600209052747L43.33424479166666,55.06061578713931L43.5576171875,61.78661196965438L43.78098958333333,60.61568936017844L44.00436197916667,53.04553721501277L44.227734375000004,66.52477298333095L44.451106770833334,68.81215574191168L44.674479166666664,69.5746139563047L44.8978515625,72.37938603071066L45.12122395833333,60.860766374147865L45.34459635416666,65.43554000671094L45.567968750000006,61.89553689039672L45.791341145833336,71.39907797483298L46.014713541666666,63.50215106744033L46.238085937499996,63.72000090892498L46.46145833333333,78.37015117131747L46.68483072916666,94.35461142429939L46.908203125,80.57584429704227L47.13157552083334,93.51046357705043L47.35494791666667,81.66507727366229L47.5783203125,82.4275354880553L47.801692708333334,83.59845809753125L48.025065104166664,85.28677002283244L48.2484375,75.45646229157082L48.47180989583334,97.26830841944769L48.69518229166667,82.4547707759417L48.9185546875,87.98261717649608L49.14192708333333,79.54107378079341L49.365299479166666,71.07231132800763L49.588671875,85.28677002283244L49.81204427083333,99.2833829338734L50.03541666666667,83.40784354393298L50.2587890625,89.69815627428203L50.48216145833333,97.6495375266442L50.70553385416667,100.61769292446283L50.92890625,82.40030831557056L51.37565104166667,82.64538532953998L51.5990234375,94.08230723784521L51.82239583333333,88.25492136295026L52.269140625,81.22938570609459L52.492513020833336,68.83938291439644L52.715885416666666,89.0173876927449L52.9392578125,89.56199606565329L53.16263020833333,91.46815783243912L53.38600260416666,89.91599800036505L53.609375,96.23353790319884L53.83274739583334,104.6206147808295L54.05611979166667,88.93568994448736L54.279492187500004,90.1338478418497L54.502864583333334,87.71030487464026L54.726236979166664,86.34876771156604L54.949609374999994,97.05046263566383L55.17298177083334,92.0127662053475L55.39635416666667,96.45138368698268L55.6197265625,85.61353666965778L55.843098958333336,93.04753672159636L56.066471354166666,89.94323328825145L56.289843749999996,89.88877082788028L56.73658854166667,90.73292679053085L56.9599609375,91.08692060984099L57.18333333333334,81.42000025969287L57.40670572916667,94.65415089863998L57.630078125,91.19584553058333L57.85345052083333,88.25492136295026L58.07682291666667,89.0173876927449L58.3001953125,101.48907605959819L58.52356770833333,102.98676937360031L58.74694010416667,117.58246123332245L58.9703125,110.55692151876596L59.19368489583333,113.52507691658461L59.41705729166667,111.72784412824191L59.6404296875,107.15307861108047L59.86380208333333,109.95784662778563L60.08717447916666,111.67338572557158L60.310546875,105.0290751182116L60.75729166666667,97.59507506627304L60.980664062500004,100.10030766633841L61.204036458333334,117.60969246350803L61.427408854166664,123.08307640369124L61.65078125,110.69307766969389L61.87415364583333,105.68261652726395L62.09752604166666,108.40569085341232L62.320898437500006,107.12584738089488L62.544270833333336,113.87907885129637L62.767643229166666,111.01984431651923L62.991015624999996,115.75800127249497L63.21438802083333,104.04877112003473L63.43776041666666,102.74169235963089L63.6611328125,112.46307517015018L63.88450520833334,107.58877017864815L64.10787760416666,115.13169109362823L64.33125,103.55861709209589L64.55462239583333,108.02446174621582L64.77799479166667,111.0470755467048L65.0013671875,103.8309212785501L65.22473958333333,118.07261526126129L65.671484375,115.37676810759766L65.89485677083333,98.57538312215073L66.56497395833333,104.37553776686008L66.78834635416666,105.21969372951068L67.01171875,113.2527686724296L67.23509114583334,101.48907605959819L67.45846354166666,104.26661690381857L67.6818359375,119.62477103563455L67.90520833333333,109.35876767910445L68.351953125,114.04246217470902L68.57532552083335,106.00938317408928L68.79869791666667,106.41784756917221L69.0220703125,108.1606138394429L69.24544270833334,115.62184512156708L69.6921875,107.01692246015257L69.91555989583333,108.35123245074199L70.13893229166666,117.9092319378486L70.3623046875,128.25692492723465L70.58567708333332,127.6306147483679L70.80904947916666,131.90584687773998L71.032421875,130.46261602410902L71.25579427083333,132.1509238917094L71.47916666666667,130.73492223941363L71.70253906250001,129.6729225218296L71.92591145833333,124.6352321780645L72.14928385416667,128.36584579027618L72.37265625,130.32646190203155L72.81940104166667,121.50369345683319L73.0427734375,126.65030669249022L73.26614583333333,120.19661469642932L73.48951822916666,131.06169294393982L73.712890625,121.91215379421527L73.93626302083332,128.311383329905L74.15963541666667,126.97707739701637L74.38300781250001,122.7290785266803L74.60638020833333,125.96953811095312L74.82975260416667,119.13461700769571L75.05312500000001,122.32061413159737L75.49986979166667,126.78646284341812L75.72324218749999,121.04077065907993L75.94661458333333,114.36922882153438L76.16998697916667,127.03153985738754L76.39335937499999,118.26322981485954L76.61673177083333,118.18154018200362L76.84010416666668,123.3826158780318L77.0634765625,129.9996932263558L77.28684895833334,130.02692242769095L77.51022135416667,126.18738389473694L77.73359375,129.8090766439071L77.95696614583333,124.71692181092041L78.18033854166667,128.69261649480234L78.4037109375,120.5233854009555L78.62708333333333,128.58369157406L78.85045572916667,117.99092157070453L79.07382812499999,122.48400151271088L79.29720052083333,120.25107715680049L79.52057291666667,125.6972298667981L79.7439453125,132.5593842290915L79.96731770833334,124.30846147353834L80.19069010416668,113.68846023999728L80.4140625,121.83046010365852L80.63743489583334,128.39307702046173L80.86080729166667,118.50830682882896L81.0841796875,119.65199820811934L81.30755208333333,123.65492412218681L81.53092447916666,125.7244610969837L81.754296875,118.75338384279839L82.20104166666665,131.85138441736882L82.4244140625,139.61215314498315L82.64778645833334,137.4881537098151L83.09453125,138.7135387796622L83.31790364583334,139.5304614832768L83.54127604166666,140.07507594273642L83.7646484375,137.59707660170702L83.98802083333334,136.18107697826164L84.21139322916666,135.6909229503228L84.434765625,142.74369186621445L84.65813802083333,135.41861470616783L84.88151041666666,134.79230858500188L85.1048828125,126.94984616683081L85.32825520833335,135.60923128861648L85.55162760416667,134.98292313860014L85.775,139.31261569949297L85.99837239583334,132.91338413495285L86.22174479166667,134.60169200255322L86.4451171875,138.4412305355072L86.66848958333333,137.05246214224744L87.115234375,137.10692257376817L87.56197916666666,134.87400024670822L87.7853515625,129.9452307659846L88.00872395833333,134.43830867914053L88.23209635416667,133.9209234210161L88.45546875000001,132.50492379757074L88.67884114583333,136.262768639968L88.90221354166667,134.30215455706303L89.1255859375,130.8166159299704L89.34895833333333,131.1978470660173L89.57233072916667,133.89369219083054L89.795703125,136.28999987015357L90.01907552083333,136.535076884123L90.24244791666666,128.80153735784384L90.4658203125,131.1978470660173L91.13593750000001,136.01769162599857L91.35930989583333,135.44584593635338L91.58268229166667,137.18861626432493L91.80605468750001,135.96323119447783L92.02942708333333,130.43538479392345L92.47617187499999,136.04492285618414L92.69954427083333,129.75461621238637L92.92291666666667,128.96492473895734L93.14628906249999,134.6289232327388L93.36966145833333,137.62430783189262L93.59303385416668,138.49569299587836L93.81640625,136.64399977601494L94.03977864583334,134.81953778633704L94.26315104166667,145.35784532932135L94.4865234375,147.53630722486056L94.70989583333333,147.29123122531635L94.93326822916667,140.45630707878334L95.156640625,142.66200020450813L95.38001302083333,144.4592309640004L95.60338541666667,146.82830741313788L95.82675781249999,141.87230670222868L96.05013020833333,144.37753930229408L96.27350260416667,143.9146144756904L96.496875,145.05830788383116L96.72024739583334,146.77384596719193L96.94361979166668,144.70430797796982L97.1669921875,142.2535378382756L97.39036458333334,141.40938390447545L97.61373697916667,149.08846198480862L97.837109375,144.29584561173732L98.06048177083333,137.4881537098151L98.28385416666666,141.54553802655295L98.5072265625,136.807385128278L98.73059895833333,131.66076986377055L98.95397135416665,139.23092403778662L99.17734375,144.43199973381485L99.40071614583334,135.79984584221472L99.62408854166667,142.00846082430618L99.8474609375,145.1399995455375L100.07083333333334,143.0976917720758L100.29420572916666,146.31092215501346L100.517578125,138.49569299587836L100.74095052083334,143.64230826038582L100.96432291666666,145.30338489780058L101.1876953125,143.77846238246332L101.41106770833333,135.1735376921984L101.63444010416666,142.5803085428018L101.8578125,141.08261522879968L102.08118489583335,138.3050764134297L102.30455729166667,144.37753930229408L102.5279296875,140.53800076934007L102.75130208333334,141.76338381033676L102.97467447916667,140.48353830896892L103.198046875,143.42446247660197L103.42141927083333,140.374615417077L103.64479166666666,143.04323134055505L103.8681640625,135.9904624246634L104.09153645833332,131.7424615254769L104.31490885416666,134.68338366425957L104.53828125,139.91169261932373L104.76165364583333,135.11907726067764L105.20839843750001,135.77261461202914L105.43177083333333,134.27492332687746L105.65514322916667,143.56061456982906L105.878515625,139.5576927134624L106.10188802083333,145.08553911401677L106.32526041666667,148.10815392893093L106.5486328125,152.2472309218003L106.77200520833333,153.41815353127626L106.99537760416666,144.02353939643274L107.21875,151.13076874384512L107.44212239583332,153.52707642316818L107.66549479166667,146.47430750727654L107.88886718750001,145.95692224915211L108.11223958333333,149.0067693086771L108.33561197916667,146.39261584557022L108.55898437500001,148.08092269874538L108.78235677083333,152.5467693817157L109.00572916666667,150.42276893212247L109.22910156249999,150.42276893212247L109.45247395833333,145.05830788383116L109.67584635416667,148.51661528073825L109.89921874999999,146.2564617234927L110.12259114583333,152.60123082766165L110.34596354166668,146.82830741313788L110.79270833333334,141.10984645898526L111.01608072916667,150.04153881050075L111.239453125,149.36076921453844L111.46282552083333,150.85846151411533L111.68619791666667,146.31092215501346L111.9095703125,148.78892352489325L112.13294270833333,149.08846198480862L112.35631510416667,142.77092309640005L112.57968749999999,147.59076968523172L112.80305989583333,142.98876888018387L113.02643229166667,147.2095385491848L113.2498046875,150.80400006816936L113.47317708333334,145.43953901987808L113.69654947916668,145.52123068158443L114.14329427083334,135.96323119447783L114.36666666666667,146.44707729151617L114.5900390625,148.8706151865996L114.81341145833333,145.73907646536827L115.03678385416666,144.64984551759866L115.26015625,145.65738480366196L115.48352864583333,153.44538476146187L115.9302734375,148.54384651092383L116.15364583333334,146.1475388316008L116.37701822916667,143.5061541383083L116.600390625,147.12784587305325L116.82376302083334,143.31553755585963L117.04713541666666,142.36246073016753L117.2705078125,142.4441544207243L117.49388020833334,146.82830741313788L117.71725260416666,146.20199926312154L117.940625,154.4529230330999L118.16399739583333,148.7072308487617L118.38736979166666,154.31676891102242L118.6107421875,153.00969217946897L119.05748697916667,153.20030774749245L119.50423177083334,151.53923111007762L119.72760416666667,152.41061525963818L119.9509765625,150.4772303780684L120.17434895833333,151.13076874384512L120.39772135416666,153.60876909929974L120.62109375,152.79184639568513L120.84446614583332,149.98707736455475L121.06783854166666,151.04907708213878L121.2912109375,152.6829235037932L121.73795572916667,148.62553817263017L121.96132812500001,150.7495386222234L122.18470052083333,150.20492314833862L122.40807291666667,155.73276904168037L122.6314453125,151.6753842177299L122.85481770833333,149.74200035058533L123.07819010416667,148.10815392893093L123.3015625,144.21415395003098L123.52493489583333,148.57107672668423L123.74830729166666,151.8659997857534L123.9716796875,151.23969265016225L124.19505208333332,152.98246196370857L124.41842447916667,152.2472309218003L124.64179687500001,152.60123082766165L124.86516927083333,152.62846104342205L125.08854166666667,148.7072308487617L125.31191406250001,148.95230786273112L125.53528645833333,147.2095385491848L125.75865885416667,147.31846144107672L125.98203124999999,150.39553871636207L126.20540364583333,154.37123035696837L126.42877604166667,151.51199987989204L126.65214843749999,151.78430812404704L126.87552083333333,152.49230793576973L127.09889322916668,149.0067693086771L127.322265625,150.6678459460919L127.54563802083334,150.04153881050075L127.76901041666667,151.0218458519532L127.9923828125,152.1110767997228L128.21575520833332,150.504461608254L128.43912760416669,145.276153667615L128.6625,151.40307698800015L129.10924479166667,149.76923056634573L129.3326171875,140.61969243104642L129.55598958333334,143.26107712433887L129.77936197916668,150.42276893212247L130.002734375,153.79938466732318L130.22610677083333,158.10184599803043L130.44947916666666,152.60123082766165L130.6728515625,151.81153833980744L130.89622395833334,149.71476912039978L131.11959635416667,152.60123082766165L131.34296875,156.3863079146697L131.56634114583335,156.05953822456874L131.78971354166666,157.8840002142466L132.0130859375,150.12323047220707L132.23645833333333,153.74492322137723L132.45983072916667,155.21538479798116L132.683203125,150.69507717627747L133.12994791666665,154.26230746507645L133.3533203125,156.46800008358863L133.57669270833333,155.32430768987308L133.80006510416666,155.67830759573442L134.0234375,154.31676891102242L134.24680989583334,155.59661542681548L134.69355468749998,154.58907715517742L134.91692708333332,153.82661488308358L135.14029947916666,154.0444616812926L135.363671875,148.08092269874538L135.58704427083333,150.34107727041612L135.81041666666667,156.60415369845353L136.03378906249998,152.08384658396244L136.25716145833331,149.90538468842323L136.48053385416665,154.6163073709378L136.70390625,150.12323047220707L136.92727864583335,155.9778460556498L137.3740234375,155.37876913581903L137.59739583333334,150.45000016230804L137.82076822916667,153.28200042362397L138.044140625,150.58615428438554L138.26751302083335,151.8659997857534L138.49088541666669,152.2744611375607L138.7142578125,155.433230581765L139.16100260416667,149.90538468842323L139.384375,151.81153833980744L139.60774739583334,156.16846162367327L139.83111979166665,151.64815400196957L140.724609375,152.8190766114455L140.94798177083334,158.40138445794582L141.17135416666665,152.30169236774628L141.39472656249998,156.68584637458508L141.61809895833332,156.68584637458508L141.84147135416666,148.95230786273112L142.06484375,157.58446175433122L142.28821614583333,157.77507681514209L142.51158854166667,154.9975385069847L142.7349609375,156.90369215836893L142.95833333333334,157.4755383552267L143.18170572916668,156.52246152953458L143.40507812500002,154.8886156150928L143.62845052083335,157.5027690781997L143.85182291666666,153.8810773434547L144.0751953125,153.2275379632528L144.29856770833334,154.80692293896126L144.52194010416667,157.99292310613853L144.7453125,157.80230753811506L144.96868489583335,157.80230753811506L145.19205729166666,158.8370770399387L145.4154296875,155.92338460970385L145.63880208333333,159.10938477688111L145.86217447916667,155.92338460970385L146.085546875,156.74030782053103L146.53229166666665,157.03984628044643L146.7556640625,154.80692293896126L146.97903645833333,154.7524614930153L147.20240885416666,154.64353860112337L147.42578125,156.14123090070026L147.6491536458333,156.60415369845353L147.87252604166665,155.67830759573442L148.0958984375,153.33646186956992L148.31927083333335,156.60415369845353L148.54264322916669,156.3590766844841L148.76601562500002,152.79184639568513L148.98938802083333,157.44830763225372L149.21276041666667,156.767538543504L149.4361328125,156.3863079146697L149.65950520833334,156.1140001777273L149.88287760416668,156.08676945475432L150.10625000000002,156.08676945475432L150.32962239583333,156.4952308065616L150.55299479166666,155.07923067590366L150.7763671875,155.92338460970385L150.99973958333334,154.37123035696837L151.22311197916667,154.56184592499184L151.44648437499998,152.16553824566876L151.66985677083332,156.33184596151114L151.89322916666666,154.18061580337013L152.1166015625,156.19569234664624L152.33997395833333,151.94769246188494L152.56334635416667,151.21246141997668L152.78671874999998,158.75538436380717L153.01009114583331,155.07923067590366L153.23346354166665,156.52246152953458L153.4568359375,155.37876913581903L153.68020833333335,155.51492325789653L153.9035807291667,155.54215398086953L154.126953125,158.26523084308093L154.57369791666667,157.12153844936537L154.7970703125,153.71769199119163L155.02044270833335,157.4755383552267L155.24381510416669,157.82953826108803L155.4671875,155.62384614978845L155.69055989583333,155.48769253492355L155.91393229166667,159.7901538656308L156.1373046875,157.69338464622314L156.36067708333334,158.91876920885764L156.58404947916665,155.89615388673084L156.807421875,157.03984628044643L157.03079427083333,161.0427691512383L157.25416666666666,157.03984628044643L157.4775390625,157.25769206423027L157.70091145833334,159.70846144310556L157.92428385416665,154.15338457318452L158.37102864583332,159.65399999715962L158.59440104166666,160.9066152827671L158.8177734375,159.76292314265783L159.04114583333333,161.5873846251231L159.26451822916667,155.433230581765L159.487890625,159.46338468274246L159.71126302083334,158.61923074894227L159.93463541666668,158.51030785705035L160.15800781250002,159.5178461286884L160.38138020833335,156.3590766844841L160.60475260416666,156.71307709755806L160.828125,153.52707642316818L161.05149739583334,157.7206153691961L161.27486979166667,156.60415369845353L161.4982421875,156.71307709755806L161.72161458333335,156.4135386376427L161.94498697916666,157.55723052414564L162.168359375,157.44830763225372L162.39173177083333,156.9309228813419L162.61510416666667,158.4286151809188L163.06184895833331,156.68584637458508L163.28522135416665,156.767538543504L163.50859375,157.77507681514209L163.73196614583333,154.56184592499184L164.1787109375,156.68584637458508L164.4020833333333,155.10646139887663L164.62545572916665,154.53461570923145L164.848828125,155.86892316375787L165.07220052083335,153.1186150713609L165.29557291666669,157.55723052414564L165.51894531250002,158.2924615660539L165.74231770833333,156.05953822456874L165.96569010416667,159.70846144310556L166.1890625,161.4240000336789L166.41243489583334,158.75538436380717L166.63580729166668,160.79769239087517L166.85917968750002,161.12446157376354L167.08255208333333,155.2698462439271L167.30592447916666,161.23338471926175L167.529296875,160.4709229543805L167.75266927083334,157.12153844936537L167.97604166666667,156.33184596151114L168.19941406249998,159.926307734102L168.42278645833332,159.02769210074956L169.09290364583333,160.85215383682115L169.31627604166667,158.75538436380717L169.53964843749998,159.980769180048L169.76302083333331,158.21076939713495L169.98639322916665,154.9975385069847L170.209765625,160.7432306913229L170.43313802083335,161.01553842826533L170.6565104166667,161.28784616520772L170.8798828125,160.06246160257322L171.10325520833334,160.57984609987872L171.32662760416667,158.8370770399387L171.55,159.0821540539081L171.77337239583335,158.48307713407738L171.99674479166669,159.16384622282706L172.44348958333333,159.0004613777766L172.66686197916667,159.0821540539081L172.890234375,157.23046134125727L173.11360677083334,155.78723099483895L173.33697916666665,159.02769210074956L173.5603515625,156.6586151443995L173.78372395833333,155.62384614978845L174.00709635416666,156.52246152953458L174.23046875,159.8173845886038L174.45384114583334,157.42107690928074L174.67721354166665,156.3863079146697L174.90058593749998,158.34692301199985L175.12395833333332,156.4952308065616L175.34733072916666,158.37415373497285L175.570703125,159.73569241968485L175.79407552083333,157.69338464622314L176.01744791666667,152.73738494973915L176.2408203125,158.59200002596927L176.46419270833334,158.26523084308093L176.68756510416668,157.5027690781997L176.91093750000002,156.54969225250758L177.13430989583335,159.1366154998541L177.5810546875,159.0821540539081L177.80442708333334,158.78261559399274L178.02779947916667,160.85215383682115L178.69791666666666,158.37415373497285L178.9212890625,156.6586151443995L179.14466145833333,161.09723085079057L179.36803385416667,161.01553842826533L179.59140625,160.87938455979412L179.81477864583331,160.4981539309598L180.03815104166665,159.95353845707498L180.2615234375,159.57230757463438L180.48489583333333,160.93384625934638L180.70826822916666,159.32723081427125L180.931640625,158.8370770399387L181.1550130208333,157.31215401738882L181.37838541666665,158.12907672100343L181.6017578125,161.5873846251231L182.04850260416669,156.74030782053103L182.27187500000002,159.3816922602172L182.49524739583333,159.7901538656308L182.71861979166667,159.87184603454975L182.9419921875,159.46338468274246L183.16536458333334,159.32723081427125L183.38873697916668,160.33476933951562L183.61210937500002,161.09723085079057L183.83548177083333,158.97323065480361L184.05885416666666,159.926307734102L184.2822265625,158.4286151809188L184.50559895833334,160.85215383682115L184.72897135416667,158.8370770399387L185.17571614583332,161.01553842826533L185.39908854166666,158.12907672100343L185.6224609375,160.7704614142959L185.84583333333333,157.3393847403618L186.06920572916667,161.505692329401L186.29257812499998,162.32261541342507L186.51595052083331,159.57230757463438L186.73932291666665,158.7281536408342L186.9626953125,159.32723081427125L187.18606770833335,159.46338468274246L187.4094401041667,161.4240000336789L187.6328125,160.4981539309598L187.85618489583334,160.33476933951562L188.07955729166667,160.68876924537696L188.3029296875,159.5178461286884L188.52630208333335,157.8840002142466L188.74967447916669,159.3816922602172L188.973046875,160.00799990302096L189.19641927083333,160.38923078546156L189.41979166666667,158.4286151809188L189.86653645833334,159.73569241968485L190.08990885416665,161.83246151228937L190.31328125,159.3816922602172L190.53665364583333,161.66907692084519L190.76002604166666,161.75076921656728L190.9833984375,160.9066152827671L191.20677083333334,158.07461527505745L191.43014322916665,160.38923078546156L191.65351562499998,159.70846144310556L191.87688802083332,162.40430770914716L192.10026041666666,161.4240000336789L192.3236328125,160.1986154710444L192.54700520833333,161.8596923620655L192.77037760416667,161.23338471926175L192.99375,159.43615395976948L193.21712239583334,160.85215383682115L193.44049479166668,162.62215387334044L193.66386718750002,160.06246160257322L193.88723958333335,161.69630764381816L194.11061197916666,161.1516922967365L194.333984375,161.7235384935943L194.55735677083334,158.51030785705035L194.78072916666667,157.61169247730422L195.0041015625,162.02307695350967L195.22747395833335,161.66907692084519L195.45084635416666,161.69630764381816L195.67421875,160.87938455979412L195.89759114583333,160.68876924537696L196.3443359375,160.33476933951562L196.56770833333331,160.79769239087517L196.79108072916665,159.73569241968485L197.014453125,160.14415377149214L197.23782552083333,159.7901538656308L197.46119791666666,159.73569241968485L197.6845703125,160.96107698231936L197.9079427083333,160.68876924537696L198.13131510416665,155.62384614978845L198.3546875,161.47846147962488L198.57805989583335,160.52538465393278L198.80143229166669,162.02307695350967L199.02480468750002,161.09723085079057L199.24817708333333,160.87938455979412L199.47154947916667,161.23338471926175L199.694921875,159.6812307201326L199.91829427083334,162.21369226792683L200.14166666666668,161.23338471926175L200.36503906250002,159.245538391746L200.58841145833333,161.26061544223475L200.81178385416666,160.41646150843454L201.03515625,161.75076921656728L201.25852864583334,161.09723085079057L201.48190104166667,160.63430779943099L201.70527343749998,162.78553846478462L201.92864583333332,161.77799993954025L202.15201822916666,159.1366154998541L202.375390625,161.3150768881807L202.59876302083333,161.99584610373356L202.82213541666667,162.67661538268797L203.04550781249998,161.36953846092982L203.26888020833331,161.61461534809607L203.715625,161.505692329401L203.93899739583335,162.10476924923177L204.1623697916667,160.96107698231936L204.3857421875,161.12446157376354L204.60911458333334,158.7281536408342L204.83248697916667,161.1789230197095L205.055859375,161.36953846092982L205.27923177083335,161.23338471926175L205.50260416666669,161.8869230850385L205.7259765625,162.4587692184947L205.94934895833333,161.66907692084519L206.17272135416667,161.8596923620655L206.39609375,161.77799993954025L206.61946614583334,161.47846147962488L206.84283854166665,160.66153852240396L207.0662109375,161.06999987421128L207.28958333333333,160.55261537690575L207.51295572916666,161.3967691839028L207.736328125,160.96107698231936L207.95970052083334,162.5404615142168L208.18307291666665,161.28784616520772L208.40644531249998,160.41646150843454L208.62981770833332,162.21369226792683L208.85319010416666,160.3620000624886L209.0765625,162.56769230059135L209.29993489583333,161.66907692084519L209.52330729166667,162.10476924923177L209.7466796875,161.6418461978722L209.97005208333334,161.99584610373356L210.19342447916668,159.87184603454975L210.41679687500002,160.79769239087517L210.64016927083335,162.10476924923177L210.86354166666666,162.5404615142168L211.0869140625,158.34692301199985L211.31028645833334,161.99584610373356L211.53365885416667,161.1789230197095L211.75703125,156.98538483450045L211.98040364583335,161.0427691512383L212.4271484375,161.96861538076055L212.65052083333333,160.87938455979412L212.87389322916667,161.94138465778758L213.097265625,159.76292314265783L213.32063802083331,159.46338468274246L213.54401041666665,162.92169230155503L213.7673828125,162.07753839945565L213.99075520833333,163.08507692470002L214.4375,162.89446154688127L214.6608723958333,162.29538456364892L214.88424479166665,162.34984613639804L215.1076171875,161.532923052374L215.33098958333335,161.20615374268246L215.77773437500002,162.3770769227726L216.00110677083333,162.18646154495386L216.22447916666667,162.78553846478462L216.4478515625,161.20615374268246L216.67122395833334,161.01553842826533L216.89459635416668,162.18646154495386L217.11796875000002,162.78553846478462L217.34134114583333,161.94138465778758L217.56471354166666,162.81276925115918L217.7880859375,162.10476924923177L218.01145833333334,162.51323079124379L218.23483072916667,161.94138465778758L218.45820312499998,161.66907692084519L218.68157552083332,162.59492308696588L218.90494791666666,162.02307695350967L219.1283203125,161.20615374268246L219.35169270833333,161.83246151228937L219.57506510416667,162.59492308696588L219.79843749999998,161.45123075665188L220.02180989583331,162.62215387334044L220.24518229166665,161.09723085079057L220.4685546875,162.62215387334044L220.69192708333335,161.34230773795682L220.9152994791667,161.61461534809607L221.138671875,160.06246160257322L221.36204427083334,162.70384616906253L221.58541666666667,162.9489230879296L221.8087890625,161.61461534809607L222.03216145833335,162.15923082198088L222.25553385416669,160.3620000624886L222.47890625,162.02307695350967L222.70227864583333,161.3150768881807L222.92565104166667,162.21369226792683L223.1490234375,162.43153843212013L223.37239583333334,162.62215387334044L223.59576822916665,161.94138465778758L223.819140625,162.59492308696588L224.04251302083333,161.12446157376354L224.26588541666666,161.8052307893164L224.4892578125,162.3770769227726L224.71263020833334,162.21369226792683L224.93600260416665,162.5404615142168L225.15937499999998,161.77799993954025L225.38274739583332,158.64646147191525L225.60611979166666,162.29538456364892L225.8294921875,162.70384616906253L226.05286458333333,163.05784613832546L226.27623697916667,162.34984613639804L226.499609375,162.7310768920355L226.94635416666668,163.08507692470002L227.16972656250002,162.5404615142168L227.39309895833335,161.3967691839028L227.61647135416666,162.83999997413216L228.06321614583334,162.7310768920355L228.28658854166667,162.9489230879296L228.5099609375,162.6493845963134L228.73333333333335,163.16676923627247L228.95670572916666,162.97615384260337L229.180078125,162.29538456364892L229.40345052083333,161.99584610373356L229.62682291666667,162.29538456364892L229.8501953125,162.67661538268797L230.29694010416665,162.7310768920355L230.5203125,162.56769230059135L230.74368489583333,162.29538456364892L230.96705729166666,161.99584610373356L231.1904296875,161.99584610373356L231.4138020833333,162.75830767841006L231.63717447916665,162.86723076050671L231.860546875,162.40430770914716L232.08391927083335,162.34984613639804L232.30729166666669,161.01553842826533L232.75403645833333,163.03061538365168L232.97740885416667,162.4587692184947L233.20078125,162.75830767841006L233.42415364583334,161.47846147962488L233.64752604166668,162.62215387334044L234.09427083333333,161.5873846251231L234.31764322916666,161.91415380801146L234.541015625,161.1789230197095L234.98776041666667,160.9066152827671L235.21113281249998,162.21369226792683L235.43450520833332,162.4587692184947L235.65787760416666,160.68876924537696L235.88125,162.75830767841006L236.10462239583333,161.28784616520772L236.32799479166667,161.8596923620655L236.55136718749998,162.26815384067595L236.77473958333331,161.77799993954025L236.99811197916665,162.78553846478462L237.221484375,161.8052307893164L237.44485677083335,162.34984613639804L237.6682291666667,162.40430770914716L237.8916015625,162.92169230155503L238.11497395833334,162.78553846478462L238.33834635416667,162.07753839945565L238.56171875,161.99584610373356L239.00846354166669,162.81276925115918L239.2318359375,162.92169230155503L239.45520833333333,163.0033846289779L239.67858072916667,162.02307695350967L240.12532552083334,162.48600000486923L240.34869791666665,162.4587692184947L240.5720703125,162.81276925115918L240.79544270833333,162.02307695350967L241.01881510416666,162.34984613639804L241.2421875,163.05784613832546L241.46555989583334,162.29538456364892L241.68893229166665,162.83999997413216L241.91230468749998,162.6493845963134L242.13567708333332,162.15923082198088L242.35904947916666,162.83999997413216L242.582421875,162.75830767841006L242.80579427083333,162.18646154495386L243.02916666666667,162.07753839945565L243.2525390625,161.96861538076055L243.47591145833334,162.4587692184947L243.69928385416668,162.51323079124379L243.92265625000002,162.97615384260337L244.14602864583335,163.19400000679664L244.36940104166666,162.56769230059135L244.5927734375,162.6493845963134L245.03951822916667,163.16676923627247L245.262890625,162.24092311770298L245.70963541666666,162.86723076050671L245.9330078125,161.83246151228937L246.15638020833333,163.03061538365168L246.37975260416667,162.21369226792683L246.603125,163.08507692470002L246.82649739583331,163.05784613832546L247.04986979166665,161.83246151228937L247.49661458333333,163.03061538365168L247.71998697916666,161.47846147962488L247.943359375,163.03061538365168L248.1667317708333,163.03061538365168L248.39010416666665,162.43153843212013L248.6134765625,162.89446154688127L248.83684895833335,163.0033846289779L249.06022135416669,161.3150768881807L249.50696614583333,163.08507692470002L249.73033854166667,162.86723076050671L249.9537109375,162.21369226792683L250.17708333333334,163.05784613832546L250.40045572916668,162.83999997413216L250.62382812500002,162.78553846478462L250.84720052083333,162.02307695350967L251.07057291666666,163.03061538365168L251.2939453125,163.03061538365168L251.51731770833334,162.7310768920355L251.74069010416667,163.0033846289779L251.96406249999998,162.6493845963134L252.18743489583332,161.36953846092982L252.41080729166666,162.4587692184947L252.6341796875,163.0033846289779L252.85755208333333,161.91415380801146L253.08092447916667,162.51323079124379L253.30429687499998,163.13953846574833L253.52766927083331,162.92169230155503L253.75104166666665,162.70384616906253L253.9744140625,163.03061538365168L254.19778645833335,163.05784613832546L254.4211588541667,162.48600000486923L254.64453125,163.03061538365168L254.86790364583334,162.92169230155503L255.09127604166667,163.08507692470002L255.3146484375,161.94138465778758L255.53802083333335,163.03061538365168L255.76139322916669,162.81276925115918L255.984765625,163.16676923627247L256.43151041666664,163.03061538365168L256.6548828125,163.0033846289779L256.87825520833337,162.67661538268797L257.10162760416665,162.78553846478462L257.325,162.56769230059135L257.5483723958333,162.59492308696588L257.77174479166666,162.7310768920355L257.9951171875,162.92169230155503L258.21848958333334,162.78553846478462L258.4418619791667,163.05784613832546L258.665234375,162.81276925115918L258.88860677083335,163.16676923627247L259.55872395833336,163.03061538365168L259.78209635416664,162.18646154495386L260.00546875,162.86723076050671L260.2288411458333,162.59492308696588L260.45221354166665,163.13953846574833L260.6755859375,162.81276925115918L260.8989583333333,162.81276925115918L261.12233072916666,163.13953846574833L261.345703125,163.19400000679664" style="fill: none;" fill="none"></path></g></g></g></g></g></g><g transform="translate(61, 177)" clip-path="url(#clip_1)"><clipPath id="clip_1"><rect width="268" height="22"></rect></clipPath><g><g><line x1="0" y1="0" x2="0" y2="5" style="visibility: inherit;" fill="rgb(0, 0, 0)" stroke="rgb(204, 204, 204)" stroke-width="1px"></line><line x1="22.337239583333332" y1="0" x2="22.337239583333332" y2="5" style="visibility: inherit;" fill="rgb(0, 0, 0)" stroke="rgb(204, 204, 204)" stroke-width="1px"></line><line x1="44.674479166666664" y1="0" x2="44.674479166666664" y2="5" style="visibility: inherit;" fill="rgb(0, 0, 0)" stroke="rgb(204, 204, 204)" stroke-width="1px"></line><line x1="67.01171875" y1="0" x2="67.01171875" y2="5" style="visibility: inherit;" fill="rgb(0, 0, 0)" stroke="rgb(204, 204, 204)" stroke-width="1px"></line><line x1="89.34895833333333" y1="0" x2="89.34895833333333" y2="5" style="visibility: inherit;" fill="rgb(0, 0, 0)" stroke="rgb(204, 204, 204)" stroke-width="1px"></line><line x1="111.68619791666667" y1="0" x2="111.68619791666667" y2="5" style="visibility: inherit;" fill="rgb(0, 0, 0)" stroke="rgb(204, 204, 204)" stroke-width="1px"></line><line x1="134.0234375" y1="0" x2="134.0234375" y2="5" style="visibility: inherit;" fill="rgb(0, 0, 0)" stroke="rgb(204, 204, 204)" stroke-width="1px"></line><line x1="156.36067708333334" y1="0" x2="156.36067708333334" y2="5" style="visibility: inherit;" fill="rgb(0, 0, 0)" stroke="rgb(204, 204, 204)" stroke-width="1px"></line><line x1="178.69791666666666" y1="0" x2="178.69791666666666" y2="5" style="visibility: inherit;" fill="rgb(0, 0, 0)" stroke="rgb(204, 204, 204)" stroke-width="1px"></line><line x1="201.03515625" y1="0" x2="201.03515625" y2="5" style="visibility: inherit;" fill="rgb(0, 0, 0)" stroke="rgb(204, 204, 204)" stroke-width="1px"></line><line x1="223.37239583333334" y1="0" x2="223.37239583333334" y2="5" style="visibility: inherit;" fill="rgb(0, 0, 0)" stroke="rgb(204, 204, 204)" stroke-width="1px"></line><line x1="245.70963541666666" y1="0" x2="245.70963541666666" y2="5" style="visibility: inherit;" fill="rgb(0, 0, 0)" stroke="rgb(204, 204, 204)" stroke-width="1px"></line><line x1="268.046875" y1="0" x2="268.046875" y2="5" style="visibility: inherit;" fill="rgb(0, 0, 0)" stroke="rgb(204, 204, 204)" stroke-width="1px"></line></g><g transform="translate(0, 8)"><text x="0" y="0" dx="0em" dy="0.95em" style="text-anchor: middle; visibility: hidden; font-family: Roboto, sans-serif; font-size: 12px; font-weight: 200;" fill="rgb(33, 33, 33)" stroke="none" stroke-width="1px">-1k</text><text x="22.337239583333332" y="0" dx="0em" dy="0.95em" style="text-anchor: middle; visibility: inherit; font-family: Roboto, sans-serif; font-size: 12px; font-weight: 200;" fill="rgb(33, 33, 33)" stroke="none" stroke-width="1px">0</text><text x="44.674479166666664" y="0" dx="0em" dy="0.95em" style="text-anchor: middle; visibility: inherit; font-family: Roboto, sans-serif; font-size: 12px; font-weight: 200;" fill="rgb(33, 33, 33)" stroke="none" stroke-width="1px">1k</text><text x="67.01171875" y="0" dx="0em" dy="0.95em" style="text-anchor: middle; visibility: inherit; font-family: Roboto, sans-serif; font-size: 12px; font-weight: 200;" fill="rgb(33, 33, 33)" stroke="none" stroke-width="1px">2k</text><text x="89.34895833333333" y="0" dx="0em" dy="0.95em" style="text-anchor: middle; visibility: inherit; font-family: Roboto, sans-serif; font-size: 12px; font-weight: 200;" fill="rgb(33, 33, 33)" stroke="none" stroke-width="1px">3k</text><text x="111.68619791666667" y="0" dx="0em" dy="0.95em" style="text-anchor: middle; visibility: inherit; font-family: Roboto, sans-serif; font-size: 12px; font-weight: 200;" fill="rgb(33, 33, 33)" stroke="none" stroke-width="1px">4k</text><text x="134.0234375" y="0" dx="0em" dy="0.95em" style="text-anchor: middle; visibility: inherit; font-family: Roboto, sans-serif; font-size: 12px; font-weight: 200;" fill="rgb(33, 33, 33)" stroke="none" stroke-width="1px">5k</text><text x="156.36067708333334" y="0" dx="0em" dy="0.95em" style="text-anchor: middle; visibility: inherit; font-family: Roboto, sans-serif; font-size: 12px; font-weight: 200;" fill="rgb(33, 33, 33)" stroke="none" stroke-width="1px">6k</text><text x="178.69791666666666" y="0" dx="0em" dy="0.95em" style="text-anchor: middle; visibility: inherit; font-family: Roboto, sans-serif; font-size: 12px; font-weight: 200;" fill="rgb(33, 33, 33)" stroke="none" stroke-width="1px">7k</text><text x="201.03515625" y="0" dx="0em" dy="0.95em" style="text-anchor: middle; visibility: inherit; font-family: Roboto, sans-serif; font-size: 12px; font-weight: 200;" fill="rgb(33, 33, 33)" stroke="none" stroke-width="1px">8k</text><text x="223.37239583333334" y="0" dx="0em" dy="0.95em" style="text-anchor: middle; visibility: inherit; font-family: Roboto, sans-serif; font-size: 12px; font-weight: 200;" fill="rgb(33, 33, 33)" stroke="none" stroke-width="1px">9k</text><text x="245.70963541666666" y="0" dx="0em" dy="0.95em" style="text-anchor: middle; visibility: inherit; font-family: Roboto, sans-serif; font-size: 12px; font-weight: 200;" fill="rgb(33, 33, 33)" stroke="none" stroke-width="1px">10k</text><text x="268.046875" y="0" dx="0em" dy="0.95em" style="text-anchor: middle; visibility: hidden; font-family: Roboto, sans-serif; font-size: 12px; font-weight: 200;" fill="rgb(33, 33, 33)" stroke="none" stroke-width="1px">11k</text></g><line x1="0" y1="0" x2="268.046875" y2="0" fill="rgb(0, 0, 0)" stroke="rgb(204, 204, 204)" stroke-width="1px"></line></g></g></g></g></svg>